<svg width="138" height="24" viewBox="0 0 138 24" fill="none" xmlns="http://www.w3.org/2000/svg">
<path d="M8.17677 23.9998C17.9887 23.9998 23.3542 15.5366 23.3542 8.19785C23.3542 7.95746 23.3495 7.71809 23.3391 7.47997C24.3806 6.69599 25.2859 5.71768 26 4.60409C25.0443 5.04647 24.0156 5.34407 22.9367 5.47852C24.038 4.79079 24.8836 3.70322 25.2823 2.40665C24.2516 3.04275 23.1102 3.50496 21.8951 3.75465C20.9217 2.67513 19.5357 2 18.0012 2C15.0555 2 12.6665 4.4872 12.6665 7.55308C12.6665 7.98905 12.7134 8.41285 12.8048 8.8195C8.37137 8.58715 4.43999 6.37732 1.80928 3.01673C1.35126 3.83746 1.08704 4.791 1.08704 5.80834C1.08704 7.73503 2.02887 9.43618 3.46086 10.4312C2.58568 10.4031 1.76366 10.153 1.04498 9.73668C1.04419 9.76002 1.04419 9.78273 1.04419 9.80752C1.04419 12.4973 2.88283 14.7431 5.3239 15.252C4.8756 15.379 4.40388 15.4473 3.9173 15.4473C3.57413 15.4473 3.23969 15.4122 2.91457 15.3472C3.59377 17.5539 5.56313 19.1596 7.89787 19.2047C6.07213 20.6945 3.77209 21.582 1.27251 21.582C0.842453 21.582 0.417557 21.5564 0 21.5052C2.36073 23.0805 5.16422 24 8.17697 24" fill="#FB9333"/>
<g clip-path="url(#clip0_319_42312)">
<path d="M79.829 0H60.171C58.972 0 58 0.972 58 2.17099V21.8289C58 23.028 58.972 24 60.171 24H79.8289C81.028 24 82 23.028 82 21.8289V2.17099C82 0.972 81.028 0 79.829 0ZM65.4266 20.7232C65.4266 21.0721 65.1438 21.355 64.7948 21.355H62.1054C61.7565 21.355 61.4737 21.0721 61.4737 20.7232V9.4494C61.4737 9.10046 61.7565 8.81761 62.1054 8.81761H64.7948C65.1438 8.81761 65.4266 9.10046 65.4266 9.4494V20.7232ZM63.4501 7.75489C62.0391 7.75489 60.8952 6.61099 60.8952 5.19996C60.8952 3.78892 62.0391 2.64503 63.4501 2.64503C64.8612 2.64503 66.0051 3.78892 66.0051 5.19996C66.0051 6.61099 64.8612 7.75489 63.4501 7.75489ZM79.4813 20.7741C79.4813 21.0949 79.2212 21.355 78.9004 21.355H76.0145C75.6937 21.355 75.4335 21.0949 75.4335 20.7741V15.486C75.4335 14.6972 75.6649 12.0292 73.372 12.0292C71.5934 12.0292 71.2327 13.8553 71.1602 14.6749V20.7741C71.1602 21.0949 70.9002 21.355 70.5793 21.355H67.7882C67.4674 21.355 67.2073 21.0949 67.2073 20.7741V9.39851C67.2073 9.07772 67.4674 8.81761 67.7882 8.81761H70.5793C70.9001 8.81761 71.1602 9.07772 71.1602 9.39851V10.3821C71.8197 9.39236 72.7998 8.62844 74.8866 8.62844C79.5077 8.62844 79.4813 12.9457 79.4813 15.3178V20.7741Z" fill="#FB9333"/>
</g>
<g clip-path="url(#clip1_319_42312)">
<path d="M137.928 7.05249C137.869 5.77515 137.667 4.90283 137.37 4.13965C137.069 3.33893 136.596 2.61365 135.986 2.01416C135.387 1.40369 134.661 0.931091 133.86 0.6297C133.097 0.333252 132.225 0.130554 130.948 0.0725098C129.668 0.013916 129.259 0 126 0C122.741 0 122.332 0.013916 121.052 0.0721435C119.775 0.130554 118.903 0.333435 118.14 0.630066C117.339 0.931274 116.614 1.40369 116.014 2.01416C115.404 2.61346 114.931 3.33875 114.63 4.13947C114.333 4.90283 114.131 5.77515 114.073 7.05231C114.014 8.33221 114 8.74091 114 11.9998C114 15.2589 114.014 15.6678 114.073 16.9475C114.131 18.2247 114.334 19.097 114.63 19.8604C114.931 20.6609 115.404 21.3864 116.014 21.9857C116.614 22.5961 117.339 23.0685 118.14 23.3698C118.903 23.6666 119.775 23.8693 121.053 23.9277C122.333 23.9861 122.741 23.9998 126 23.9998C129.259 23.9998 129.668 23.9861 130.948 23.9277C132.225 23.8693 133.097 23.6666 133.861 23.3698C135.472 22.7465 136.747 21.4722 137.37 19.8604C137.667 19.097 137.869 18.2247 137.928 16.9475C137.986 15.6676 138 15.2589 138 12C138 8.74091 137.986 8.33221 137.928 7.05249ZM135.768 16.8492C135.714 18.0192 135.519 18.6546 135.355 19.0774C134.951 20.124 134.124 20.9511 133.077 21.3549C132.654 21.5191 132.019 21.7147 130.849 21.7679C129.584 21.8258 129.204 21.8379 126 21.8379C122.795 21.8379 122.416 21.8258 121.151 21.7679C119.981 21.7147 119.346 21.5191 118.923 21.3549C118.401 21.1624 117.93 20.8557 117.543 20.4571C117.144 20.07 116.838 19.5987 116.645 19.0774C116.481 18.6546 116.285 18.0192 116.232 16.8492C116.174 15.5839 116.162 15.2043 116.162 12.0002C116.162 8.79584 116.174 8.41644 116.232 7.151C116.286 5.98096 116.481 5.34558 116.645 4.92279C116.838 4.40149 117.144 3.92999 117.543 3.54291C117.93 3.14429 118.401 2.83759 118.923 2.64532C119.346 2.4809 119.981 2.28552 121.151 2.23206C122.416 2.17438 122.796 2.16211 126 2.16211H126C129.204 2.16211 129.584 2.17438 130.849 2.23224C132.019 2.28552 132.654 2.48108 133.077 2.64532C133.598 2.83777 134.07 3.14447 134.457 3.54291C134.856 3.92999 135.162 4.40149 135.354 4.92279C135.519 5.34558 135.714 5.98096 135.768 7.151C135.825 8.41626 135.838 8.79584 135.838 12C135.838 15.2043 135.826 15.5837 135.768 16.8492Z" fill="#FB9333"/>
<path d="M126 5.83777C122.597 5.83777 119.838 8.5968 119.838 12C119.838 15.4032 122.597 18.162 126 18.162C129.403 18.162 132.162 15.4032 132.162 12C132.162 8.5968 129.403 5.83777 126 5.83777ZM126 15.9999C123.791 15.9998 122 14.209 122 11.9998C122 9.79083 123.791 7.99988 126 7.99988C128.209 8.00006 130 9.79083 130 11.9998C130 14.209 128.209 15.9999 126 15.9999Z" fill="#FB9333"/>
<path d="M133.846 5.59442C133.846 6.38965 133.201 7.03436 132.406 7.03436C131.61 7.03436 130.965 6.38965 130.965 5.59442C130.965 4.79901 131.61 4.1543 132.406 4.1543C133.201 4.1543 133.846 4.79901 133.846 5.59442Z" fill="#FB9333"/>
</g>
<defs>
<clipPath id="clip0_319_42312">
<rect width="24" height="24" fill="white" transform="translate(58)"/>
</clipPath>
<clipPath id="clip1_319_42312">
<rect width="24" height="24" fill="white" transform="translate(114)"/>
</clipPath>
</defs>
</svg>
