<svg width="4" height="6" viewBox="0 0 4 6" fill="none" xmlns="http://www.w3.org/2000/svg">
<path fill-rule="evenodd" clip-rule="evenodd" d="M2.00003 4.5076e-06C0.895471 4.5076e-06 3.39821e-05 0.895442 3.39821e-05 2C3.39821e-05 2.93188 0.637409 3.71494 1.50003 3.937V6H2.50003V3.937C3.36266 3.71494 4.00003 2.93188 4.00003 2C4.00003 0.895442 3.1046 4.5076e-06 2.00003 4.5076e-06ZM2.00003 3C1.44866 3 1.00003 2.55138 1.00003 2C1.00003 1.44863 1.44866 1 2.00003 1C2.55141 1 3.00003 1.44863 3.00003 2C3.00003 2.55138 2.55141 3 2.00003 3Z" fill="black" fill-opacity="0.38"/>
</svg>
