<svg width="25" height="7" viewBox="0 0 25 7" fill="none" xmlns="http://www.w3.org/2000/svg">
<path fill-rule="evenodd" clip-rule="evenodd" d="M3.16084 6.65173C1.58621 6.65173 0.593741 5.50137 0.547971 5.44718C0.370816 5.23773 0.398253 4.92519 0.609205 4.74929C0.819597 4.57387 1.13306 4.60038 1.31059 4.8084C1.34826 4.85211 2.22137 5.84334 3.53087 5.63064C4.28563 5.50817 5.28184 4.02925 5.94108 3.05056C6.20615 2.65702 6.43507 2.31718 6.64041 2.06182C7.68631 0.760746 8.75424 0.606849 9.46672 0.707057C10.972 0.918697 12.2327 2.42175 12.8146 3.81755C13.2794 4.93274 14.002 5.57951 14.8492 5.63887C15.81 5.70503 16.8158 5.02247 17.537 3.80957C17.6136 3.68086 17.6968 3.52921 17.7851 3.3687C18.3764 2.2923 19.2701 0.665527 21.0121 0.665527C22.9542 0.665527 24.2519 2.8035 24.3062 2.89454C24.4467 3.12987 24.3683 3.4338 24.1313 3.5733C23.8943 3.71279 23.5883 3.6349 23.4478 3.39957C23.4455 3.3957 23.1677 2.93732 22.7084 2.49115C22.3164 2.11034 21.7039 1.65638 21.0121 1.65638C19.8623 1.65638 19.1962 2.86891 18.6609 3.84324C18.5686 4.01135 18.4813 4.17018 18.3962 4.31329C17.4784 5.85668 16.1264 6.72245 14.7789 6.62723C13.5348 6.54005 12.5098 5.67678 11.8928 4.19655C11.2684 2.69874 10.1294 1.80099 9.32686 1.68806C8.66588 1.5949 8.02391 1.92882 7.42011 2.67991C7.24103 2.90271 7.01236 3.24218 6.77029 3.60148C5.92542 4.85573 4.87397 6.41665 3.69175 6.60852C3.50835 6.63827 3.33114 6.65173 3.16084 6.65173Z" fill="black" fill-opacity="0.38"/>
</svg>
