<svg width="29" height="29" viewBox="0 0 29 29" fill="none" xmlns="http://www.w3.org/2000/svg">
<path fill-rule="evenodd" clip-rule="evenodd" d="M14.5 1.5C16.2554 1.5 17.9578 1.84356 19.5599 2.52119C21.1078 3.17594 22.4982 4.11344 23.6924 5.30762C24.8866 6.50181 25.8241 7.89225 26.4788 9.44012C27.1564 11.0422 27.5 12.7446 27.5 14.5C27.5 16.2554 27.1564 17.9578 26.4788 19.5599C25.8241 21.1078 24.8866 22.4982 23.6924 23.6924C22.4982 24.8866 21.1077 25.8241 19.5599 26.4788C17.9578 27.1564 16.2554 27.5 14.5 27.5C12.7446 27.5 11.0422 27.1564 9.44012 26.4788C7.89219 25.8241 6.50181 24.8866 5.30762 23.6924C4.11344 22.4982 3.17594 21.1077 2.52119 19.5599C1.84356 17.9578 1.5 16.2554 1.5 14.5C1.5 12.7446 1.84356 11.0422 2.52119 9.44012C3.17594 7.89219 4.11344 6.50181 5.30762 5.30762C6.50181 4.11344 7.89225 3.17594 9.44012 2.52119C11.0422 1.84356 12.7446 1.5 14.5 1.5ZM14.5 0.5C6.768 0.5 0.5 6.768 0.5 14.5C0.5 22.232 6.768 28.5 14.5 28.5C22.232 28.5 28.5 22.232 28.5 14.5C28.5 6.768 22.232 0.5 14.5 0.5Z" fill="black" fill-opacity="0.38"/>
</svg>
