<svg width="15" height="8" viewBox="0 0 15 8" fill="none" xmlns="http://www.w3.org/2000/svg">
<path d="M1.54661 4.16638L0.700592 3.95928L1.04869 0.733854H4.50766V1.63274H1.92996L1.7537 3.2058C1.85358 3.14705 1.99165 3.08977 2.1679 3.03396C2.34415 2.9752 2.54537 2.94583 2.77156 2.94583C3.07413 2.94583 3.34439 2.99577 3.58233 3.09564C3.82321 3.19258 4.02737 3.33505 4.19481 3.52306C4.36225 3.70812 4.49003 3.93431 4.57816 4.20163C4.66628 4.46601 4.71035 4.76417 4.71035 5.09612C4.71035 5.39281 4.66628 5.67041 4.57816 5.92891C4.49297 6.18742 4.36372 6.41508 4.1904 6.61189C4.01709 6.80871 3.79824 6.96293 3.53386 7.07455C3.27242 7.18324 2.96251 7.23759 2.60412 7.23759C2.33681 7.23759 2.07977 7.1994 1.83302 7.12302C1.5892 7.04371 1.37035 6.92768 1.17648 6.77493C0.982597 6.61924 0.826907 6.42829 0.709405 6.2021C0.591903 5.97297 0.524339 5.71006 0.506714 5.41337H1.54661C1.57304 5.62194 1.63033 5.79966 1.71845 5.94654C1.80952 6.09048 1.92996 6.20063 2.07977 6.27701C2.22959 6.35339 2.4029 6.39157 2.59972 6.39157C2.77891 6.39157 2.93313 6.36073 3.06238 6.29904C3.19163 6.23442 3.29886 6.14335 3.38404 6.02585C3.47217 5.90541 3.5368 5.76441 3.57792 5.60284C3.62199 5.44128 3.64402 5.26209 3.64402 5.06527C3.64402 4.87727 3.61905 4.70542 3.56911 4.54973C3.52211 4.39404 3.45014 4.25891 3.3532 4.14435C3.2592 4.02978 3.14023 3.94166 2.99629 3.87997C2.85235 3.81534 2.68638 3.78303 2.49837 3.78303C2.24574 3.78303 2.05187 3.81975 1.91674 3.89319C1.78455 3.96663 1.66117 4.05769 1.54661 4.16638Z" fill="white" fill-opacity="0.8"/>
<path d="M6.67116 0.381348V7.14946H5.61364V0.381348H6.67116ZM6.4861 4.58939L6.1424 4.58498C6.14534 4.25598 6.19087 3.95194 6.279 3.67287C6.37006 3.39381 6.49638 3.15146 6.65794 2.94583C6.82245 2.73726 7.01926 2.57717 7.24839 2.46554C7.47752 2.35097 7.73162 2.29369 8.01068 2.29369C8.24569 2.29369 8.45719 2.32601 8.6452 2.39063C8.83614 2.45526 9.00064 2.55954 9.1387 2.70348C9.27677 2.84448 9.38105 3.02955 9.45155 3.25868C9.52499 3.48487 9.56171 3.761 9.56171 4.08707V7.14946H8.49538V4.07825C8.49538 3.84913 8.4616 3.667 8.39404 3.53187C8.32941 3.39674 8.23394 3.2998 8.10762 3.24105C7.98131 3.17936 7.82709 3.14852 7.64496 3.14852C7.45402 3.14852 7.28511 3.18671 7.13823 3.26308C6.99429 3.33946 6.87385 3.44374 6.77691 3.57593C6.67998 3.70812 6.60654 3.86088 6.5566 4.03419C6.5096 4.20751 6.4861 4.39257 6.4861 4.58939Z" fill="white" fill-opacity="0.8"/>
<path d="M12.9722 4.00775C12.9722 3.84325 13.0266 3.70519 13.1352 3.59356C13.2469 3.47899 13.3996 3.42171 13.5935 3.42171C13.7874 3.42171 13.9387 3.47899 14.0473 3.59356C14.159 3.70519 14.2148 3.84325 14.2148 4.00775C14.2148 4.17226 14.159 4.31032 14.0473 4.42195C13.9387 4.53064 13.7874 4.58498 13.5935 4.58498C13.3996 4.58498 13.2469 4.53064 13.1352 4.42195C13.0266 4.31032 12.9722 4.17226 12.9722 4.00775Z" fill="white" fill-opacity="0.8"/>
</svg>
