<svg width="16" height="10" viewBox="0 0 16 10" fill="none" xmlns="http://www.w3.org/2000/svg">
<path d="M5.73828 0.675781H7.20312V6.37695C7.20312 7.02539 7.0625 7.56836 6.78125 8.00586C6.5 8.44336 6.11719 8.77344 5.63281 8.99609C5.15234 9.21484 4.61523 9.32422 4.02148 9.32422C3.4082 9.32422 2.86133 9.21484 2.38086 8.99609C1.90039 8.77344 1.52148 8.44336 1.24414 8.00586C0.970703 7.56836 0.833984 7.02539 0.833984 6.37695V0.675781H2.29883V6.37695C2.29883 6.78711 2.36914 7.125 2.50977 7.39062C2.65039 7.65234 2.84961 7.8457 3.10742 7.9707C3.36523 8.0957 3.66992 8.1582 4.02148 8.1582C4.37305 8.1582 4.67578 8.0957 4.92969 7.9707C5.1875 7.8457 5.38672 7.65234 5.52734 7.39062C5.66797 7.125 5.73828 6.78711 5.73828 6.37695V0.675781Z" fill="#181820"/>
<path d="M11.2812 9.20703H9.45898L9.4707 8.04102H11.2812C11.8086 8.04102 12.25 7.92578 12.6055 7.69531C12.9648 7.46484 13.2344 7.13477 13.4141 6.70508C13.5977 6.27539 13.6895 5.76367 13.6895 5.16992V4.70703C13.6895 4.24609 13.6367 3.83789 13.5312 3.48242C13.4297 3.12695 13.2773 2.82812 13.0742 2.58594C12.875 2.34375 12.6289 2.16016 12.3359 2.03516C12.0469 1.91016 11.7129 1.84766 11.334 1.84766H9.42383V0.675781H11.334C11.9004 0.675781 12.418 0.771484 12.8867 0.962891C13.3555 1.15039 13.7598 1.42188 14.0996 1.77734C14.4434 2.13281 14.707 2.55859 14.8906 3.05469C15.0742 3.55078 15.166 4.10547 15.166 4.71875V5.16992C15.166 5.7832 15.0742 6.33789 14.8906 6.83398C14.707 7.33008 14.4434 7.75586 14.0996 8.11133C13.7559 8.46289 13.3457 8.73438 12.8691 8.92578C12.3965 9.11328 11.8672 9.20703 11.2812 9.20703ZM10.2734 0.675781V9.20703H8.80273V0.675781H10.2734Z" fill="#181820"/>
</svg>
