<svg width="9" height="9" viewBox="0 0 9 9" fill="none" xmlns="http://www.w3.org/2000/svg">
<path fill-rule="evenodd" clip-rule="evenodd" d="M7.30032 7.37101C8.09421 6.57712 8.54021 5.50038 8.54021 4.37765C8.54021 3.25493 8.09421 2.17818 7.30032 1.38429C6.50644 0.590407 5.4297 0.144409 4.30697 0.144409C3.18425 0.144409 2.10751 0.590407 1.31362 1.38429C0.519732 2.17818 0.0737305 3.25493 0.0737305 4.37765C0.0737305 5.50038 0.519732 6.57712 1.31362 7.37101C2.10751 8.16489 3.18425 8.61089 4.30697 8.61089C5.4297 8.61089 6.50644 8.16489 7.30032 7.37101ZM5.45261 0.855182C5.47417 0.896274 5.49005 0.937764 5.50048 0.978395C5.57139 1.25038 5.45814 1.56099 5.21156 1.74937C5.14351 1.80073 5.06997 1.8407 4.99814 1.87974C4.80353 1.98551 4.62152 2.08444 4.59562 2.38437C4.5875 2.52236 4.62753 2.65889 4.70886 2.77066C4.91312 3.07069 4.83374 3.17281 4.65912 3.23102C4.39454 3.31939 4.09663 3.16223 3.77755 2.96644C3.27802 2.65953 2.96953 2.94528 2.82136 3.08286C2.61658 3.27176 2.63087 3.47284 2.77004 3.65963C2.89015 3.8078 3.07165 3.82949 3.24257 3.82579H3.26215C3.27273 3.82579 3.28385 3.82526 3.29496 3.82473L3.29497 3.82473C3.30608 3.8242 3.31719 3.82367 3.32777 3.82367L3.32935 3.82579C3.38386 3.82367 3.43889 3.82208 3.49498 3.82367L3.51884 3.82453C3.65514 3.82932 3.82551 3.8353 3.92042 3.9422C3.99239 4.02316 3.99238 4.13216 3.94688 4.22212H3.95005L3.93922 4.24196C3.89944 4.31429 3.86726 4.37281 3.94688 4.41262L3.9908 4.4285C3.99397 4.43061 3.99397 4.43061 3.99767 4.43061H3.99768C4.19331 4.49657 4.40104 4.51879 4.60621 4.49569C4.76392 4.47465 4.89974 4.43173 5.02325 4.3927C5.25075 4.3208 5.43646 4.26212 5.64018 4.37769C5.71043 4.41704 5.75979 4.49518 5.81013 4.57487C5.85458 4.64525 5.8998 4.71684 5.96084 4.76398C6.0585 4.83931 6.15671 4.86855 6.25123 4.89668C6.3426 4.92387 6.43053 4.95004 6.51116 5.01585C6.92529 5.35623 6.89107 5.51565 6.78423 6.01339L6.77574 6.05299C6.7022 6.39581 6.49244 7.06363 6.13346 7.60011C5.85857 7.7559 5.56478 7.87594 5.25935 7.95722C5.23127 7.85692 5.21067 7.75618 5.19214 7.6656L5.18314 7.62177C5.10588 7.25824 4.84978 6.7222 4.47937 6.70103C3.4581 6.64282 3.17606 5.91419 3.18293 5.70094C3.21839 4.74105 2.91836 4.44419 2.47757 4.44419C1.15098 4.44419 0.867351 3.46102 1.2658 2.28788C1.27243 2.26983 1.27923 2.25187 1.28621 2.23398C1.40571 2.06559 1.53984 1.90642 1.68779 1.75847C2.38244 1.06382 3.32459 0.673564 4.30697 0.673564C4.6997 0.673564 5.08599 0.735932 5.45261 0.855182Z" fill="white" fill-opacity="0.8"/>
</svg>
