<svg width="16" height="10" viewBox="0 0 16 10" fill="none" xmlns="http://www.w3.org/2000/svg">
<path d="M5.74695 0.675781H7.21179V6.37695C7.21179 7.02539 7.07117 7.56836 6.78992 8.00586C6.50867 8.44336 6.12585 8.77344 5.64148 8.99609C5.16101 9.21484 4.6239 9.32422 4.03015 9.32422C3.41687 9.32422 2.87 9.21484 2.38953 8.99609C1.90906 8.77344 1.53015 8.44336 1.25281 8.00586C0.97937 7.56836 0.842651 7.02539 0.842651 6.37695V0.675781H2.3075V6.37695C2.3075 6.78711 2.37781 7.125 2.51843 7.39062C2.65906 7.65234 2.85828 7.8457 3.11609 7.9707C3.3739 8.0957 3.67859 8.1582 4.03015 8.1582C4.38171 8.1582 4.68445 8.0957 4.93835 7.9707C5.19617 7.8457 5.39539 7.65234 5.53601 7.39062C5.67664 7.125 5.74695 6.78711 5.74695 6.37695V0.675781Z" fill="#181820"/>
<path d="M12.0516 6.02539H9.83093V4.85938H12.0516C12.4384 4.85938 12.7509 4.79688 12.9891 4.67188C13.2274 4.54688 13.4012 4.375 13.5106 4.15625C13.6239 3.93359 13.6805 3.67969 13.6805 3.39453C13.6805 3.125 13.6239 2.87305 13.5106 2.63867C13.4012 2.40039 13.2274 2.20898 12.9891 2.06445C12.7509 1.91992 12.4384 1.84766 12.0516 1.84766H10.2821V9.20703H8.8114V0.675781H12.0516C12.7118 0.675781 13.2723 0.792969 13.7333 1.02734C14.1981 1.25781 14.5516 1.57812 14.7938 1.98828C15.036 2.39453 15.1571 2.85938 15.1571 3.38281C15.1571 3.93359 15.036 4.40625 14.7938 4.80078C14.5516 5.19531 14.1981 5.49805 13.7333 5.70898C13.2723 5.91992 12.7118 6.02539 12.0516 6.02539Z" fill="#181820"/>
</svg>
