<svg width="26" height="26" viewBox="0 0 26 26" fill="none" xmlns="http://www.w3.org/2000/svg">
<path d="M24.0577 13C24.0577 6.89327 19.1067 1.94231 13 1.94231C6.89327 1.94231 1.94231 6.89327 1.94231 13C1.94231 19.1067 6.89327 24.0577 13 24.0577C19.1067 24.0577 24.0577 19.1067 24.0577 13ZM25.5 13C25.5 19.9038 19.9038 25.5 13 25.5C6.09615 25.5 0.5 19.9038 0.5 13C0.5 6.09615 6.09615 0.5 13 0.5C19.9038 0.5 25.5 6.09615 25.5 13ZM6.72981 13H6.87596C7.16635 13 7.32885 13.325 7.16731 13.5683C6.59038 14.4337 6.25288 15.4692 6.25288 16.5808V17.0587C6.25288 17.175 6.25962 17.2894 6.27308 17.4019C6.29808 17.6173 6.13654 17.8077 5.92019 17.8077H5.42596C4.56538 17.8077 3.86538 17.0865 3.86538 16.199C3.86538 14.4346 5.04519 13 6.72981 13ZM19.2702 13C20.9558 13 22.1346 14.4346 22.1346 16.199C22.1346 17.0865 21.4346 17.8077 20.575 17.8077H20.0808C19.8644 17.8077 19.7019 17.6173 19.7279 17.4019C19.7404 17.2894 19.7471 17.175 19.7471 17.0587V16.5808C19.7471 15.4692 19.4106 14.4337 18.8337 13.5683C18.6721 13.325 18.8337 13 19.124 13H19.2702ZM7.47115 12.0385C6.41058 12.0385 5.54808 11.0683 5.54808 9.875C5.54808 8.56154 6.30288 7.71154 7.47115 7.71154C8.63942 7.71154 9.39423 8.56154 9.39423 9.875C9.39423 11.0683 8.53173 12.0385 7.47115 12.0385ZM18.5288 12.0385C17.4683 12.0385 16.6058 11.0683 16.6058 9.875C16.6058 8.56154 17.3606 7.71154 18.5288 7.71154C19.6971 7.71154 20.4519 8.56154 20.4519 9.875C20.4519 11.0683 19.5894 12.0385 18.5288 12.0385ZM14.1269 12.5192C16.4212 12.5192 18.2885 14.3413 18.2885 16.5808V17.0587C18.2885 18.0019 17.5029 18.7692 16.5356 18.7692H9.46442C8.49712 18.7692 7.71154 18.0019 7.71154 17.0587V16.5808C7.71154 14.3413 9.57788 12.5192 11.8731 12.5192H14.1269ZM15.6442 8.19231C15.6442 9.78365 14.4587 11.0769 13 11.0769C11.5423 11.0769 10.3558 9.78365 10.3558 8.19231C10.3558 6.41346 11.3692 5.30769 13 5.30769C14.6317 5.30769 15.6442 6.41346 15.6442 8.19231Z" fill="white"/>
</svg>
