<svg width="14" height="8" viewBox="0 0 14 8" fill="none" xmlns="http://www.w3.org/2000/svg">
<path d="M2.87361 0.38078C2.63727 0.152521 2.32074 0.026184 1.99219 0.0290391C1.66364 0.0318941 1.34934 0.163668 1.11701 0.396C0.884677 0.628331 0.752902 0.942629 0.750047 1.27118C0.747192 1.59974 0.873491 1.91623 1.10175 2.15256L6.11407 7.16488C6.34906 7.3998 6.66773 7.53184 7 7.53184C7.33227 7.53184 7.65094 7.3998 7.88593 7.16488L12.8983 2.15256C13.1265 1.91623 13.2528 1.59974 13.25 1.27118C13.2471 0.942629 13.1153 0.628331 12.883 0.396C12.6507 0.163668 12.3364 0.0318941 12.0078 0.0290391C11.6793 0.026184 11.3627 0.152521 11.1264 0.38078L7 4.50713L2.87361 0.38078Z" fill="white" fill-opacity="0.9"/>
</svg>
