<svg width="21" height="21" viewBox="0 0 21 21" fill="none" xmlns="http://www.w3.org/2000/svg">
<path d="M19.6775 1.39437C19.6775 0.890521 19.3728 0.433539 18.9041 0.238248C18.4353 0.0429569 17.9001 0.15232 17.5408 0.50775L15.8376 2.2146C13.9626 4.08939 11.4197 5.14396 8.76733 5.14396H8.42749H7.17749H3.42749C2.04858 5.14396 0.92749 6.26494 0.92749 7.64369V11.3933C0.92749 12.772 2.04858 13.893 3.42749 13.893V18.8925C3.42749 19.5838 3.98608 20.1423 4.67749 20.1423H7.17749C7.8689 20.1423 8.42749 19.5838 8.42749 18.8925V13.893H8.76733C11.4197 13.893 13.9626 14.9476 15.8376 16.8224L17.5408 18.5253C17.9001 18.8847 18.4353 18.9901 18.9041 18.7948C19.3728 18.5995 19.6775 18.1465 19.6775 17.6387V11.8776C20.4041 11.5339 20.9275 10.6082 20.9275 9.51849C20.9275 8.42876 20.4041 7.50308 19.6775 7.15937V1.39437ZM17.1775 4.39014V9.51849V14.6468C14.8806 12.5572 11.8845 11.3933 8.76733 11.3933H8.42749V7.64369H8.76733C11.8845 7.64369 14.8806 6.47976 17.1775 4.39014Z" fill="white"/>
</svg>
