<svg width="26" height="26" viewBox="0 0 26 26" fill="none" xmlns="http://www.w3.org/2000/svg">
<path d="M7.37502 25.0536C6.93145 25.0536 6.57145 24.6936 6.57145 24.25C6.57145 23.8064 6.93145 23.4464 7.37502 23.4464H18.625C19.0686 23.4464 19.4286 23.8064 19.4286 24.25C19.4286 24.6936 19.0686 25.0536 18.625 25.0536H7.37502ZM16.3889 11.7636L10.9161 15.0603C10.4189 15.3593 9.78573 15.0025 9.78573 14.4218V7.82713C9.78573 7.24748 10.4189 6.88963 10.9161 7.18855L16.3889 10.4864C16.87 10.7757 16.87 11.4732 16.3889 11.7636ZM21.3036 19.6964C22.6343 19.6964 23.7143 18.6164 23.7143 17.2857V4.96427C23.7143 3.63355 22.6343 2.55355 21.3036 2.55355H4.69645C3.36573 2.55355 2.28573 3.63355 2.28573 4.96427V17.2857C2.28573 18.6164 3.36573 19.6964 4.69645 19.6964H21.3036ZM21.3036 21.3036H4.69645C2.47752 21.3036 0.678589 19.5046 0.678589 17.2857V4.96427C0.678589 2.74534 2.47752 0.946411 4.69645 0.946411H21.3036C23.5225 0.946411 25.3214 2.74534 25.3214 4.96427V17.2857C25.3214 19.5046 23.5225 21.3036 21.3036 21.3036Z" fill="white"/>
</svg>
